<?xml version="1.0" standalone="no"?>
<!DOCTYPE svg PUBLIC "-//W3C//DTD SVG 20010904//EN"
 "http://www.w3.org/TR/2001/REC-SVG-20010904/DTD/svg10.dtd">
<svg version="1.0" xmlns="http://www.w3.org/2000/svg"
 width="105.000000pt" height="105.000000pt" viewBox="0 0 105.000000 105.000000"
 preserveAspectRatio="xMidYMid meet">
<metadata>
Created by potrace 1.11, written by Peter Selinger 2001-2013
</metadata>
<g transform="translate(0.000000,105.000000) scale(0.100000,-0.100000)"
fill="#000000" stroke="none">
<path d="M0 525 l0 -525 525 0 525 0 0 525 0 525 -525 0 -525 0 0 -525z m531
296 c-6 -11 -11 -24 -11 -30 0 -15 27 -14 36 1 5 8 2 9 -10 5 -12 -5 -16 -3
-14 5 9 26 33 13 33 -17 0 -25 -4 -31 -27 -33 -42 -5 -55 29 -29 74 12 19 22
43 22 52 1 9 4 5 6 -10 2 -15 -1 -36 -6 -47z m30 -135 c16 -19 48 -44 72 -55
l42 -21 -137 0 c-75 0 -143 -3 -152 -6 -9 -3 -16 -2 -16 2 0 5 19 17 43 27 24
9 59 32 78 51 18 18 35 34 37 35 1 0 16 -14 33 -33z m14 -111 c105 0 222 3
260 7 l70 7 -43 -35 c-23 -20 -54 -56 -68 -80 -28 -48 -44 -49 -44 -3 l0 29
-235 0 c-181 0 -235 -3 -236 -12 -1 -7 -2 -21 -2 -30 0 -30 -22 -20 -45 20
-27 46 -50 73 -82 95 -23 16 -19 16 105 9 72 -4 216 -7 320 -7z m-60 -160
c143 0 315 4 383 8 l123 8 -45 -41 c-25 -23 -57 -66 -72 -96 -14 -30 -30 -54
-35 -54 -5 0 -9 23 -9 50 l0 50 -348 -2 -347 -3 -2 -35 c-2 -58 -3 -60 -13
-60 -5 0 -10 7 -10 15 0 27 -51 118 -83 147 l-30 29 114 -8 c63 -5 231 -8 374
-8z m-257 -222 l3 -113 -31 0 -30 0 0 116 0 115 28 -3 27 -3 3 -112z m162 2
l0 -115 -25 0 -25 0 0 115 0 115 25 0 25 0 0 -115z m240 0 l0 -115 -25 0 -25
0 0 115 0 115 25 0 25 0 0 -115z m165 0 l0 -110 -27 -3 -28 -3 0 116 0 116 28
-3 27 -3 0 -110z"/>
</g>
</svg>
